<svg fill="#737373" xmlns="http://www.w3.org/2000/svg"  viewBox="0 0 128 128" width="128px" height="128px"><path d="M 89 1 C 76.81 1 65.359141 3.6500781 58.369141 8.0800781 C 56.969141 8.9700781 56.559453 10.820703 57.439453 12.220703 C 58.329453 13.620703 60.180078 14.030391 61.580078 13.150391 C 67.650078 9.3003906 77.9 7 89 7 C 107.31 7 121 13.34 121 19 C 121 22.66 114.59938 27.550312 102.35938 29.820312 C 100.72938 30.120313 99.660937 31.690312 99.960938 33.320312 C 100.23094 34.760312 101.49016 35.769531 102.91016 35.769531 C 103.09016 35.769531 103.28094 35.750703 103.46094 35.720703 C 117.98094 33.020703 127 26.61 127 19 C 127 8.74 110.66 1 89 1 z M 54 21 C 24.78 21 1 44.78 1 74 C 1 103.22 24.78 127 54 127 C 83.22 127 107 103.22 107 74 C 107 44.78 83.22 21 54 21 z M 54 27 C 79.92 27 101 48.08 101 74 C 101 99.92 79.92 121 54 121 C 28.08 121 7 99.92 7 74 C 7 48.08 28.08 27 54 27 z M 124 36 C 122.34 36 121 37.34 121 39 C 121 41.65 117.85031 44.589609 112.57031 46.849609 C 111.05031 47.499609 110.34023 49.269063 110.99023 50.789062 C 111.48023 51.929063 112.59 52.609375 113.75 52.609375 C 114.14 52.609375 114.54969 52.529141 114.92969 52.369141 C 122.70969 49.029141 127 44.28 127 39 C 127 37.34 125.66 36 124 36 z M 43 41 C 41.34 41 40 42.34 40 44 L 40 51 L 37 51 C 35.34 51 34 52.34 34 54 C 34 55.66 35.34 57 37 57 L 40 57 L 40 91 L 37 91 C 35.34 91 34 92.34 34 94 C 34 95.66 35.34 97 37 97 L 40 97 L 40 104 C 40 105.66 41.34 107 43 107 C 44.66 107 46 105.66 46 104 L 46 97 L 54 97 L 54 104 C 54 105.66 55.34 107 57 107 C 58.66 107 60 105.66 60 104 L 60 97 L 65 97 C 72.17 97 78 91.17 78 84 C 78 78.37 74.400625 73.589297 69.390625 71.779297 C 71.020625 69.609297 72 66.92 72 64 C 72 57.17 66.7 51.560781 60 51.050781 L 60 44 C 60 42.34 58.66 41 57 41 C 55.34 41 54 42.34 54 44 L 54 51 L 46 51 L 46 44 C 46 42.34 44.66 41 43 41 z M 124 56 C 122.34 56 121 57.34 121 59 C 121 61.56 118.12992 63.769609 116.41992 64.849609 C 115.01992 65.739609 114.61023 67.590234 115.49023 68.990234 C 116.06023 69.890234 117.0293 70.380859 118.0293 70.380859 C 118.5793 70.380859 119.14086 70.230156 119.63086 69.910156 C 125.72086 66.060156 127 61.85 127 59 C 127 57.34 125.66 56 124 56 z M 46 57 L 59 57 C 62.86 57 66 60.14 66 64 C 66 67.86 62.86 71 59 71 L 46 71 L 46 57 z M 46 77 L 59 77 L 65 77 C 68.86 77 72 80.14 72 84 C 72 87.86 68.86 91 65 91 L 46 91 L 46 77 z"/></svg>