<svg xmlns="http://www.w3.org/2000/svg" xmlns:xlink="http://www.w3.org/1999/xlink" viewBox="0,0,256,256" width="48px" height="48px" fill-rule="nonzero"><g fill="#ffffff" fill-rule="nonzero" stroke="none" stroke-width="1" stroke-linecap="butt" stroke-linejoin="miter" stroke-miterlimit="10" stroke-dasharray="" stroke-dashoffset="0" font-family="none" font-weight="none" font-size="none" text-anchor="none" style="mix-blend-mode: normal"><g transform="scale(10.66667,10.66667)"><path d="M12,2c-0.577,0 -1.07006,0.41733 -1.16406,0.98633l-0.18945,1.13672c-0.48675,0.08367 -0.95731,0.21303 -1.41016,0.38086l-0.73437,-0.89258c-0.367,-0.446 -1.00195,-0.56048 -1.50195,-0.27148c-0.5,0.288 -0.71863,0.89555 -0.51562,1.43555l0.4043,1.08008c-0.37471,0.31238 -0.72082,0.65849 -1.0332,1.0332l-1.08008,-0.4043c-0.54,-0.203 -1.14755,0.01563 -1.43555,0.51563c-0.289,0.5 -0.17452,1.13495 0.27148,1.50195l0.89258,0.73438c-0.16783,0.45285 -0.29719,0.92341 -0.38086,1.41016l-1.13672,0.18945c-0.569,0.094 -0.98633,0.58706 -0.98633,1.16406c0,0.577 0.41733,1.07006 0.98633,1.16406l1.13672,0.18945c0.08367,0.48675 0.21303,0.95731 0.38086,1.41016l-0.89258,0.73438c-0.446,0.367 -0.56048,1.00195 -0.27148,1.50195c0.289,0.5 0.89555,0.71862 1.43555,0.51563l1.08008,-0.4043c0.31238,0.37471 0.65849,0.72082 1.0332,1.0332l-0.4043,1.08008c-0.203,0.54 0.01563,1.14755 0.51563,1.43555c0.5,0.289 1.13495,0.17352 1.50195,-0.27148l0.73438,-0.89258c0.45285,0.16783 0.92341,0.29719 1.41016,0.38086l0.18945,1.13672c0.094,0.569 0.58706,0.98633 1.16406,0.98633c0.577,0 1.07006,-0.41733 1.16406,-0.98633l0.18945,-1.13672c0.48675,-0.08367 0.95731,-0.21303 1.41016,-0.38086l0.73438,0.89258c0.367,0.446 1.00195,0.56048 1.50195,0.27148c0.5,-0.289 0.71862,-0.89555 0.51563,-1.43555l-0.4043,-1.08008c0.37471,-0.31238 0.72082,-0.6585 1.0332,-1.0332l1.08008,0.4043c0.54,0.202 1.14755,-0.01562 1.43555,-0.51562c0.289,-0.5 0.17352,-1.13495 -0.27148,-1.50195l-0.89258,-0.73437c0.16783,-0.45285 0.29719,-0.92341 0.38086,-1.41016l1.13672,-0.18945c0.569,-0.094 0.98633,-0.58706 0.98633,-1.16406c0,-0.577 -0.41733,-1.07006 -0.98633,-1.16406l-1.13672,-0.18945c-0.08367,-0.48675 -0.21303,-0.95731 -0.38086,-1.41016l0.89258,-0.73437c0.446,-0.367 0.56048,-1.00195 0.27148,-1.50195c-0.289,-0.5 -0.89555,-0.71863 -1.43555,-0.51562l-1.08008,0.4043c-0.31238,-0.37471 -0.6585,-0.72082 -1.0332,-1.0332l0.4043,-1.08008c0.203,-0.54 -0.01562,-1.14755 -0.51562,-1.43555c-0.5,-0.289 -1.13495,-0.17352 -1.50195,0.27148l-0.73437,0.89258c-0.45285,-0.16783 -0.92341,-0.29719 -1.41016,-0.38086l-0.18945,-1.13672c-0.094,-0.569 -0.58706,-0.98633 -1.16406,-0.98633zM11,6.08984v3.08398c-1.19786,0.42351 -1.99904,1.55565 -2,2.82617c0.00005,0.18411 0.01705,0.36783 0.05078,0.54883l-2.67187,1.54102c-0.24068,-0.65101 -0.37891,-1.35286 -0.37891,-2.08984c0,-2.98386 2.15536,-5.4362 5,-5.91016zM13,6.08984c2.84464,0.47396 5,2.9263 5,5.91016c0,0.73699 -0.13823,1.43883 -0.37891,2.08984l-2.67383,-1.54297c0.03427,-0.18029 0.05192,-0.36335 0.05273,-0.54687c-0.00178,-1.2698 -0.80282,-2.40095 -2,-2.82422zM13.94727,14.27734l2.68164,1.54883c-1.09852,1.32985 -2.76028,2.17383 -4.62891,2.17383c-1.86862,0 -3.53039,-0.84398 -4.62891,-2.17383l2.67969,-1.54687c0.54312,0.4648 1.23436,0.72038 1.94922,0.7207c0.71443,-0.00134 1.40493,-0.25759 1.94727,-0.72266z"></path></g></g></svg>