<svg xmlns="http://www.w3.org/2000/svg" xmlns:xlink="http://www.w3.org/1999/xlink" viewBox="0,0,256,256" width="48px" height="48px" fill-rule="nonzero"><g fill="#ffffff" fill-rule="nonzero" stroke="none" stroke-width="1" stroke-linecap="butt" stroke-linejoin="miter" stroke-miterlimit="10" stroke-dasharray="" stroke-dashoffset="0" font-family="none" font-weight="none" font-size="none" text-anchor="none" style="mix-blend-mode: normal"><g transform="scale(10.66667,10.66667)"><path d="M12,2c-1.657,0 -3,1.343 -3,3v6c0,1.657 1.343,3 3,3c1.657,0 3,-1.343 3,-3v-6c0,-1.657 -1.343,-3 -3,-3zM12,4c0.551,0 1,0.449 1,1v6c0,0.551 -0.449,1 -1,1c-0.551,0 -1,-0.449 -1,-1v-6c0,-0.551 0.449,-1 1,-1zM5,11c0,3.5253 2.60936,6.43323 6,6.91992v3.08008h2v-3.08008c3.39064,-0.4867 6,-3.39463 6,-6.91992h-2c0,2.761 -2.239,5 -5,5c-2.761,0 -5,-2.239 -5,-5z"></path></g></g></svg>